<mxfile host="app.diagrams.net" modified="2023-11-01T12:00:00.000Z" agent="Mozilla/5.0" etag="abc123" version="21.6.6">
  <diagram name="Главная страница (Dashboard)" id="dashboard-page">
    <mxGraphModel dx="1422" dy="798" grid="1" gridSize="10" guides="1" tooltips="1" connect="1" arrows="1" fold="1" page="1" pageScale="1" pageWidth="1169" pageHeight="827" math="0" shadow="0">
      <root>
        <mxCell id="0" />
        <mxCell id="1" parent="0" />
        <mxCell id="header" value="" style="rounded=0;whiteSpace=wrap;html=1;fillColor=#f5f5f5;strokeColor=#666666;fontColor=#333333;" vertex="1" parent="1">
          <mxGeometry x="40" y="40" width="1080" height="60" as="geometry" />
        </mxCell>
        <mxCell id="logo" value="GeekHeaven" style="text;html=1;strokeColor=none;fillColor=none;align=center;verticalAlign=middle;whiteSpace=wrap;rounded=0;fontStyle=1;fontSize=24;" vertex="1" parent="1">
          <mxGeometry x="60" y="55" width="160" height="30" as="geometry" />
        </mxCell>
        <mxCell id="search" value="Поиск..." style="rounded=1;whiteSpace=wrap;html=1;align=left;spacingLeft=10;fillColor=#ffffff;strokeColor=#999999;" vertex="1" parent="1">
          <mxGeometry x="400" y="55" width="360" height="30" as="geometry" />
        </mxCell>
        <mxCell id="profile" value="Профиль" style="text;html=1;strokeColor=none;fillColor=none;align=center;verticalAlign=middle;whiteSpace=wrap;rounded=0;" vertex="1" parent="1">
          <mxGeometry x="1000" y="55" width="60" height="30" as="geometry" />
        </mxCell>
        <mxCell id="nav" value="" style="rounded=0;whiteSpace=wrap;html=1;fillColor=#f9f9f9;strokeColor=#cccccc;" vertex="1" parent="1">
          <mxGeometry x="40" y="100" width="200" height="680" as="geometry" />
        </mxCell>
        <mxCell id="nav_dashboard" value="Главная" style="text;html=1;strokeColor=none;fillColor=none;align=left;verticalAlign=middle;whiteSpace=wrap;rounded=0;fontStyle=1;spacingLeft=10;" vertex="1" parent="1">
          <mxGeometry x="40" y="120" width="200" height="30" as="geometry" />
        </mxCell>
        <mxCell id="nav_library" value="Моя библиотека" style="text;html=1;strokeColor=none;fillColor=none;align=left;verticalAlign=middle;whiteSpace=wrap;rounded=0;spacingLeft=10;" vertex="1" parent="1">
          <mxGeometry x="40" y="150" width="200" height="30" as="geometry" />
        </mxCell>
        <mxCell id="nav_collections" value="Мои коллекции" style="text;html=1;strokeColor=none;fillColor=none;align=left;verticalAlign=middle;whiteSpace=wrap;rounded=0;spacingLeft=10;" vertex="1" parent="1">
          <mxGeometry x="40" y="180" width="200" height="30" as="geometry" />
        </mxCell>
        <mxCell id="nav_categories" value="Категории контента" style="text;html=1;strokeColor=none;fillColor=none;align=left;verticalAlign=middle;whiteSpace=wrap;rounded=0;fontStyle=1;spacingLeft=10;" vertex="1" parent="1">
          <mxGeometry x="40" y="230" width="200" height="30" as="geometry" />
        </mxCell>
        <mxCell id="nav_games" value="Игры" style="text;html=1;strokeColor=none;fillColor=none;align=left;verticalAlign=middle;whiteSpace=wrap;rounded=0;spacingLeft=10;" vertex="1" parent="1">
          <mxGeometry x="40" y="260" width="200" height="30" as="geometry" />
        </mxCell>
        <mxCell id="nav_movies" value="Фильмы и сериалы" style="text;html=1;strokeColor=none;fillColor=none;align=left;verticalAlign=middle;whiteSpace=wrap;rounded=0;spacingLeft=10;" vertex="1" parent="1">
          <mxGeometry x="40" y="290" width="200" height="30" as="geometry" />
        </mxCell>
        <mxCell id="nav_books" value="Книги" style="text;html=1;strokeColor=none;fillColor=none;align=left;verticalAlign=middle;whiteSpace=wrap;rounded=0;spacingLeft=10;" vertex="1" parent="1">
          <mxGeometry x="40" y="320" width="200" height="30" as="geometry" />
        </mxCell>
        <mxCell id="nav_comics" value="Комиксы и манга" style="text;html=1;strokeColor=none;fillColor=none;align=left;verticalAlign=middle;whiteSpace=wrap;rounded=0;spacingLeft=10;" vertex="1" parent="1">
          <mxGeometry x="40" y="350" width="200" height="30" as="geometry" />
        </mxCell>
        <mxCell id="nav_anime" value="Аниме" style="text;html=1;strokeColor=none;fillColor=none;align=left;verticalAlign=middle;whiteSpace=wrap;rounded=0;spacingLeft=10;" vertex="1" parent="1">
          <mxGeometry x="40" y="380" width="200" height="30" as="geometry" />
        </mxCell>
        <mxCell id="content" value="" style="rounded=0;whiteSpace=wrap;html=1;fillColor=#ffffff;strokeColor=#f0f0f0;" vertex="1" parent="1">
          <mxGeometry x="240" y="100" width="880" height="680" as="geometry" />
        </mxCell>
        <mxCell id="notifications" value="" style="rounded=1;whiteSpace=wrap;html=1;align=left;spacingLeft=10;fillColor=#fff2cc;strokeColor=#d6b656;" vertex="1" parent="1">
          <mxGeometry x="840" y="110" width="260" height="50" as="geometry" />
        </mxCell>
        <mxCell id="notifications_icon" value="🏆" style="text;html=1;strokeColor=none;fillColor=none;align=center;verticalAlign=middle;whiteSpace=wrap;rounded=0;fontStyle=1;fontSize=20;" vertex="1" parent="1">
          <mxGeometry x="850" y="120" width="30" height="30" as="geometry" />
        </mxCell>
        <mxCell id="notifications_text" value="Получено новое достижение: &lt;br&gt;&lt;b&gt;Первые шаги&lt;/b&gt;" style="text;html=1;strokeColor=none;fillColor=none;align=left;verticalAlign=middle;whiteSpace=wrap;rounded=0;fontSize=12;" vertex="1" parent="1">
          <mxGeometry x="890" y="115" width="200" height="40" as="geometry" />
        </mxCell>
        <mxCell id="recommendations_title" value="Персональные рекомендации" style="text;html=1;strokeColor=none;fillColor=none;align=left;verticalAlign=middle;whiteSpace=wrap;rounded=0;fontSize=18;fontStyle=1" vertex="1" parent="1">
          <mxGeometry x="260" y="120" width="300" height="30" as="geometry" />
        </mxCell>
        <mxCell id="recommendations_container" value="" style="rounded=0;whiteSpace=wrap;html=1;fillColor=#f9f9f9;strokeColor=#cccccc;" vertex="1" parent="1">
          <mxGeometry x="260" y="160" width="840" height="180" as="geometry" />
        </mxCell>
        <mxCell id="rec_item_1" value="" style="rounded=1;whiteSpace=wrap;html=1;fillColor=#ffffff;strokeColor=#dddddd;" vertex="1" parent="1">
          <mxGeometry x="280" y="180" width="120" height="140" as="geometry" />
        </mxCell>
        <mxCell id="rec_item_2" value="" style="rounded=1;whiteSpace=wrap;html=1;fillColor=#ffffff;strokeColor=#dddddd;" vertex="1" parent="1">
          <mxGeometry x="420" y="180" width="120" height="140" as="geometry" />
        </mxCell>
        <mxCell id="rec_item_3" value="" style="rounded=1;whiteSpace=wrap;html=1;fillColor=#ffffff;strokeColor=#dddddd;" vertex="1" parent="1">
          <mxGeometry x="560" y="180" width="120" height="140" as="geometry" />
        </mxCell>
        <mxCell id="rec_item_4" value="" style="rounded=1;whiteSpace=wrap;html=1;fillColor=#ffffff;strokeColor=#dddddd;" vertex="1" parent="1">
          <mxGeometry x="700" y="180" width="120" height="140" as="geometry" />
        </mxCell>
        <mxCell id="rec_item_5" value="" style="rounded=1;whiteSpace=wrap;html=1;fillColor=#ffffff;strokeColor=#dddddd;" vertex="1" parent="1">
          <mxGeometry x="840" y="180" width="120" height="140" as="geometry" />
        </mxCell>
        <mxCell id="new_releases_title" value="Новинки" style="text;html=1;strokeColor=none;fillColor=none;align=left;verticalAlign=middle;whiteSpace=wrap;rounded=0;fontSize=18;fontStyle=1" vertex="1" parent="1">
          <mxGeometry x="260" y="360" width="300" height="30" as="geometry" />
        </mxCell>
        <mxCell id="new_releases_container" value="" style="rounded=0;whiteSpace=wrap;html=1;fillColor=#f9f9f9;strokeColor=#cccccc;" vertex="1" parent="1">
          <mxGeometry x="260" y="400" width="840" height="180" as="geometry" />
        </mxCell>
        <mxCell id="new_item_1" value="" style="rounded=1;whiteSpace=wrap;html=1;fillColor=#ffffff;strokeColor=#dddddd;" vertex="1" parent="1">
          <mxGeometry x="280" y="420" width="120" height="140" as="geometry" />
        </mxCell>
        <mxCell id="new_item_2" value="" style="rounded=1;whiteSpace=wrap;html=1;fillColor=#ffffff;strokeColor=#dddddd;" vertex="1" parent="1">
          <mxGeometry x="420" y="420" width="120" height="140" as="geometry" />
        </mxCell>
        <mxCell id="new_item_3" value="" style="rounded=1;whiteSpace=wrap;html=1;fillColor=#ffffff;strokeColor=#dddddd;" vertex="1" parent="1">
          <mxGeometry x="560" y="420" width="120" height="140" as="geometry" />
        </mxCell>
        <mxCell id="new_item_4" value="" style="rounded=1;whiteSpace=wrap;html=1;fillColor=#ffffff;strokeColor=#dddddd;" vertex="1" parent="1">
          <mxGeometry x="700" y="420" width="120" height="140" as="geometry" />
        </mxCell>
        <mxCell id="new_item_5" value="" style="rounded=1;whiteSpace=wrap;html=1;fillColor=#ffffff;strokeColor=#dddddd;" vertex="1" parent="1">
          <mxGeometry x="840" y="420" width="120" height="140" as="geometry" />
        </mxCell>
        <mxCell id="popular_title" value="Популярное" style="text;html=1;strokeColor=none;fillColor=none;align=left;verticalAlign=middle;whiteSpace=wrap;rounded=0;fontSize=18;fontStyle=1" vertex="1" parent="1">
          <mxGeometry x="260" y="600" width="300" height="30" as="geometry" />
        </mxCell>
        <mxCell id="popular_container" value="" style="rounded=0;whiteSpace=wrap;html=1;fillColor=#f9f9f9;strokeColor=#cccccc;" vertex="1" parent="1">
          <mxGeometry x="260" y="640" width="840" height="120" as="geometry" />
        </mxCell>
        <mxCell id="popular_item_1" value="" style="rounded=1;whiteSpace=wrap;html=1;fillColor=#ffffff;strokeColor=#dddddd;" vertex="1" parent="1">
          <mxGeometry x="280" y="660" width="120" height="80" as="geometry" />
        </mxCell>
        <mxCell id="popular_item_2" value="" style="rounded=1;whiteSpace=wrap;html=1;fillColor=#ffffff;strokeColor=#dddddd;" vertex="1" parent="1">
          <mxGeometry x="420" y="660" width="120" height="80" as="geometry" />
        </mxCell>
        <mxCell id="popular_item_3" value="" style="rounded=1;whiteSpace=wrap;html=1;fillColor=#ffffff;strokeColor=#dddddd;" vertex="1" parent="1">
          <mxGeometry x="560" y="660" width="120" height="80" as="geometry" />
        </mxCell>
        <mxCell id="popular_item_4" value="" style="rounded=1;whiteSpace=wrap;html=1;fillColor=#ffffff;strokeColor=#dddddd;" vertex="1" parent="1">
          <mxGeometry x="700" y="660" width="120" height="80" as="geometry" />
        </mxCell>
        <mxCell id="popular_item_5" value="" style="rounded=1;whiteSpace=wrap;html=1;fillColor=#ffffff;strokeColor=#dddddd;" vertex="1" parent="1">
          <mxGeometry x="840" y="660" width="120" height="80" as="geometry" />
        </mxCell>
      </root>
    </mxGraphModel>
  </diagram>
</mxfile>